<svg xmlns="http://www.w3.org/2000/svg" viewBox="-50 -50 100 100">
  <g>
    <path fill="#74C0E3" d="M 0 0 L 0 -50 A 50 50 0 1 1 -50 0 z" />
    <path fill="#8C6239" d="M 0 0 L 0 -50 A 50 50 0 0 0 -50 0 z" />
  </g>
  <g fill="#528EA3">
    <polygon points="-43.47,4.90 7.49,10.64 4.93,-12.04" />
    <polygon points="-41.29,14.45 9.67,8.71 2.13,-12.84" />
    <polygon points="-37.04,23.28 11.36,6.34 -0.78,-12.99" />
    <polygon points="-30.94,30.94 12.49,3.65 -3.65,-12.49" />
    <polygon points="-23.28,37.04 12.99,0.78 -6.34,-11.36" />
    <polygon points="-14.45,41.29 12.84,-2.13 -8.71,-9.67" />
    <polygon points="-4.90,43.47 12.04,-4.93 -10.64,-7.49" />
    <polygon points="4.90,43.47 10.64,-7.49 -12.04,-4.93" />
    <polygon points="14.45,41.29 8.71,-9.67 -12.84,-2.13" />
    <polygon points="23.28,37.04 6.34,-11.36 -12.99,0.78" />
    <polygon points="30.94,30.94 3.65,-12.49 -12.49,3.65" />
    <polygon points="37.04,23.28 0.78,-12.99 -11.36,6.34" />
    <polygon points="41.29,14.45 -2.13,-12.84 -9.67,8.71" />
    <polygon points="43.47,4.90 -4.93,-12.04 -7.49,10.64" />
    <polygon points="43.47,-4.90 -7.49,-10.64 -4.93,12.04" />
    <polygon points="41.29,-14.45 -9.67,-8.71 -2.13,12.84" />
    <polygon points="37.04,-23.28 -11.36,-6.34 0.78,12.99" />
    <polygon points="30.94,-30.94 -12.49,-3.65 3.65,12.49" />
    <polygon points="23.28,-37.04 -12.99,-0.78 6.34,11.36" />
    <polygon points="14.45,-41.29 -12.84,2.13 8.71,9.67" />
    <polygon points="4.90,-43.47 -12.04,4.93 10.64,7.49" />
  </g>
  <g fill="#754C24">
    <polygon points="-4.90,-43.47 -10.64,7.49 12.04,4.93" />
    <polygon points="-14.45,-41.29 -8.71,9.67 12.84,2.13" />
    <polygon points="-23.28,-37.04 -6.34,11.36 12.99,-0.78" />
    <polygon points="-30.94,-30.94 -3.65,12.49 12.49,-3.65" />
    <polygon points="-37.04,-23.28 -0.78,12.99 11.36,-6.34" />
    <polygon points="-41.29,-14.45 2.13,12.84 9.67,-8.71" />
    <polygon points="-43.47,-4.90 4.93,12.04 7.49,-10.64" />
  </g>
  <g fill="#3E6576">
    <polygon points="-50.00,0.00 0.00,11.41 0.00,0.00" />
    <polygon points="-48.75,11.13 2.54,11.13 -2.54,-11.13" />
    <polygon points="-45.05,21.69 4.95,10.28 -4.95,-10.28" />
    <polygon points="-39.09,31.17 7.12,8.92 -7.12,-8.92" />
    <polygon points="-31.17,39.09 8.92,7.12 -8.92,-7.12" />
    <polygon points="-21.69,45.05 10.28,4.95 -10.28,-4.95" />
    <polygon points="-11.13,48.75 11.13,2.54 -11.13,-2.54" />
    <polygon points="0.00,50.00 11.41,0.00 -11.41,0.00" />
    <polygon points="11.13,48.75 11.13,-2.54 -11.13,2.54" />
    <polygon points="21.69,45.05 10.28,-4.95 -10.28,4.95" />
    <polygon points="31.17,39.09 8.92,-7.12 -8.92,7.12" />
    <polygon points="39.09,31.17 7.12,-8.92 -7.12,8.92" />
    <polygon points="45.05,21.69 4.95,-10.28 -4.95,10.28" />
    <polygon points="48.75,11.13 2.54,-11.13 -2.54,11.13" />
    <polygon points="50.00,0.00 0.00,-11.41 0.00,11.41" />
    <polygon points="48.75,-11.13 -2.54,-11.13 2.54,11.13" />
    <polygon points="45.05,-21.69 -4.95,-10.28 4.95,10.28" />
    <polygon points="39.09,-31.17 -7.12,-8.92 7.12,8.92" />
    <polygon points="31.17,-39.09 -8.92,-7.12 8.92,7.12" />
    <polygon points="21.69,-45.05 -10.28,-4.95 10.28,4.95" />
    <polygon points="11.13,-48.75 -11.13,-2.54 11.13,2.54" />
    <polygon points="0.00,-50.00 0.00,0.00 11.41,0.00" />
  </g>
  <g fill="#603813">
    <polygon points="0.00,-50.00 -11.41,-0.00 0.00,0.00" />
    <polygon points="-11.13,-48.75 -11.13,2.54 11.13,-2.54" />
    <polygon points="-21.69,-45.05 -10.28,4.95 10.28,-4.95" />
    <polygon points="-31.17,-39.09 -8.92,7.12 8.92,-7.12" />
    <polygon points="-39.09,-31.17 -7.12,8.92 7.12,-8.92" />
    <polygon points="-45.05,-21.69 -4.95,10.28 4.95,-10.28" />
    <polygon points="-48.75,-11.13 -2.54,11.13 2.54,-11.13" />
    <polygon points="-50.00,-0.00 0.00,0.00 0.00,-11.41" />
  </g>
  <g fill="#224C5B">
    <polygon points="-37.50,0.00 12.50,11.41 12.50,-0.00" />
    <polygon points="-36.56,8.34 14.73,8.34 9.65,-13.91" />
    <polygon points="-33.79,16.27 16.21,4.86 6.31,-15.71" />
    <polygon points="-29.32,23.38 16.89,1.13 2.66,-16.72" />
    <polygon points="-23.38,29.32 16.72,-2.66 -1.13,-16.89" />
    <polygon points="-16.27,33.79 15.71,-6.31 -4.86,-16.21" />
    <polygon points="-8.34,36.56 13.91,-9.65 -8.34,-14.73" />
    <polygon points="0.00,37.50 11.41,-12.50 -11.41,-12.50" />
    <polygon points="8.34,36.56 8.34,-14.73 -13.91,-9.65" />
    <polygon points="16.27,33.79 4.86,-16.21 -15.71,-6.31" />
    <polygon points="23.38,29.32 1.13,-16.89 -16.72,-2.66" />
    <polygon points="29.32,23.38 -2.66,-16.72 -16.89,1.13" />
    <polygon points="33.79,16.27 -6.31,-15.71 -16.21,4.86" />
    <polygon points="36.56,8.34 -9.65,-13.91 -14.73,8.34" />
    <polygon points="37.50,0.00 -12.50,-11.41 -12.50,11.41" />
    <polygon points="36.56,-8.34 -14.73,-8.34 -9.65,13.91" />
    <polygon points="33.79,-16.27 -16.21,-4.86 -6.31,15.71" />
    <polygon points="29.32,-23.38 -16.89,-1.13 -2.66,16.72" />
    <polygon points="23.38,-29.32 -16.72,2.66 1.13,16.89" />
    <polygon points="16.27,-33.79 -15.71,6.31 4.86,16.21" />
    <polygon points="8.34,-36.56 -13.91,9.65 8.34,14.73" />
    <polygon points="0.00,-37.50 -0.00,12.50 11.41,12.50" />
  </g>
  <g fill="#42210b">
    <polygon points="0.00,-37.50 -11.41,12.50 -0.00,12.50" />
    <polygon points="-8.34,-36.56 -8.34,14.73 13.91,9.65" />
    <polygon points="-16.27,-33.79 -4.86,16.21 15.71,6.31" />
    <polygon points="-23.38,-29.32 -1.13,16.89 16.72,2.66" />
    <polygon points="-29.32,-23.38 2.66,16.72 16.89,-1.13" />
    <polygon points="-33.79,-16.27 6.31,15.71 16.21,-4.86" />
    <polygon points="-36.56,-8.34 9.65,13.91 14.73,-8.34" />
    <polygon points="-37.50,-0.00 12.50,0.00 12.50,-11.41" />
  </g>
  <g fill="#000000">
    <polygon points="-30.00,0.00 20.00,11.41 20.00,-0.00" />
    <polygon points="-29.25,6.68 22.04,6.68 16.96,-15.58" />
    <polygon points="-27.03,13.02 22.97,1.60 13.07,-18.96" />
    <polygon points="-23.45,18.70 22.75,-3.55 8.52,-21.39" />
    <polygon points="-18.70,23.45 21.39,-8.52 3.55,-22.75" />
    <polygon points="-13.02,27.03 18.96,-13.07 -1.60,-22.97" />
    <polygon points="-6.68,29.25 15.58,-16.96 -6.68,-22.04" />
    <polygon points="0.00,30.00 11.41,-20.00 -11.41,-20.00" />
    <polygon points="6.68,29.25 6.68,-22.04 -15.58,-16.96" />
    <polygon points="13.02,27.03 1.60,-22.97 -18.96,-13.07" />
    <polygon points="18.70,23.45 -3.55,-22.75 -21.39,-8.52" />
    <polygon points="23.45,18.70 -8.52,-21.39 -22.75,-3.55" />
    <polygon points="27.03,13.02 -13.07,-18.96 -22.97,1.60" />
    <polygon points="29.25,6.68 -16.96,-15.58 -22.04,6.68" />
    <polygon points="30.00,0.00 -20.00,-11.41 -20.00,11.41" />
    <polygon points="29.25,-6.68 -22.04,-6.68 -16.96,15.58" />
    <polygon points="27.03,-13.02 -22.97,-1.60 -13.07,18.96" />
    <polygon points="23.45,-18.70 -22.75,3.55 -8.52,21.39" />
    <polygon points="18.70,-23.45 -21.39,8.52 -3.55,22.75" />
    <polygon points="13.02,-27.03 -18.96,13.07 1.60,22.97" />
    <polygon points="6.68,-29.25 -15.58,16.96 6.68,22.04" />
    <polygon points="0.00,-30.00 -0.00,20.00 11.41,20.00" />
    <polygon points="0.00,-30.00 -11.41,20.00 -0.00,20.00" />
    <polygon points="-6.68,-29.25 -6.68,22.04 15.58,16.96" />
    <polygon points="-13.02,-27.03 -1.60,22.97 18.96,13.07" />
    <polygon points="-18.70,-23.45 3.55,22.75 21.39,8.52" />
    <polygon points="-23.45,-18.70 8.52,21.39 22.75,3.55" />
    <polygon points="-27.03,-13.02 13.07,18.96 22.97,-1.60" />
    <polygon points="-29.25,-6.68 16.96,15.58 22.04,-6.68" />
    <polygon points="-30.00,-0.00 20.00,0.00 20.00,-11.41" />
  </g>
  <g fill="#000000">
    <circle cx="0" cy="0" r="25" />
  </g>
</svg>
